# xmcd
#
# Track frame offsets:
#	150
#	23657
#	51741
#	69993
#	92228
#	113437
#	131378
#	146705
#	164948
#	184291
#	210397
#	231403
#	252568
#	281761
#
# Disc length: 4073 seconds
#
# Revision: 1
# Processed by: cddbd v1.5.2PL0 Copyright (c) Steve Scherf et al.
# Submitted via: EasyCDDAExtractor 11.1.0.1
#
DISCID=d90fe70e
DTITLE=Various Artist - Let Them Talk
DYEAR=2000
DGENRE=Blues
TTITLE0=Marva Wright - I'm Still Wearing Your Name
TTITLE1=Marva Wright - Difficult Woman
TTITLE2=Marva Wright - Love Away The Pain
TTITLE3=Marva Wright - Let Them Talk
TTITLE4=Marva Wright featuring Charmaine Neville, Bo Dollid and Terrance Simie
TTITLE4=n - The Weight
TTITLE5=Marva Wright - Rockin'  Pneumonia (I Got It Bad)
TTITLE6=Marva Wright - I Been Hoodood
TTITLE7=Marva Wright - You've Been Partying All Night
TTITLE8=Marva Wright featuring Terrance Simien - The Maker
TTITLE9=Marva Wright - Server Somebody
TTITLE10=Marva Wright - Knocking On Heavan's Door
TTITLE11=Marva Wright - You Broke A Beautiful Thing
TTITLE12=Marva Wright - Guess Who
TTITLE13=Marva Wright featuring Bo Dollis - Cabbage Alley
EXTD=
EXTT0=
EXTT1=
EXTT2=
EXTT3=
EXTT4=
EXTT5=
EXTT6=
EXTT7=
EXTT8=
EXTT9=
EXTT10=
EXTT11=
EXTT12=
EXTT13=
PLAYORDER=
